<svg aria-hidden="true" style="position: absolute; width: 0; height: 0; overflow: hidden;" version="1.1" xmlns="http://www.w3.org/2000/svg" xmlns:xlink="http://www.w3.org/1999/xlink">
<defs>
<symbol id="icon-css" viewBox="0 0 32 32">
<path fill="#0277bd" style="fill: var(--color1, #0277bd)" d="M24.5 0h-17c-4.142 0-7.5 3.358-7.5 7.5v17c0 4.142 3.358 7.5 7.5 7.5h17c4.142 0 7.5-3.358 7.5-7.5v-17c0-4.142-3.358-7.5-7.5-7.5z"></path>
<path fill="#ebebeb" style="fill: var(--color2, #ebebeb)" d="M6.719 12.831l0.358 3.993h8.935v-3.993h-9.293zM16.012 4.75h-10.012l0.363 3.993h9.649v-3.993zM16.012 27.355v-4.154l-0.017 0.005-4.447-1.201-0.284-3.184h-4.008l0.559 6.269 8.179 2.27 0.018-0.005z"></path>
<path fill="#fff" style="fill: var(--color3, #fff)" d="M20.915 16.824l-0.464 5.178-4.453 1.202v4.154l8.185-2.268 0.060-0.675 0.938-10.512 0.097-1.072 0.721-8.081h-10.002v3.993h5.626l-0.363 4.089h-5.263v3.993h4.917z"></path>
</symbol>
<symbol id="icon-figma" viewBox="0 0 24 32">
<path fill="#0acf83" style="fill: var(--color4, #0acf83)" d="M6.001 32c3.312 0 5.999-2.389 5.999-5.333v-5.333h-5.999c-3.312 0-5.999 2.389-5.999 5.333s2.688 5.333 5.999 5.333z"></path>
<path fill="#a259ff" style="fill: var(--color5, #a259ff)" d="M0.001 16c0-2.944 2.688-5.333 5.999-5.333h5.999v10.667h-5.999c-3.312 0-5.999-2.389-5.999-5.333z"></path>
<path fill="#f24e1e" style="fill: var(--color6, #f24e1e)" d="M0.001 5.333c0-2.944 2.688-5.333 5.999-5.333h5.999v10.667h-5.999c-3.312 0-5.999-2.389-5.999-5.333z"></path>
<path fill="#ff7262" style="fill: var(--color7, #ff7262)" d="M12 0h5.999c3.312 0 5.999 2.389 5.999 5.333s-2.688 5.333-5.999 5.333h-5.999v-10.667z"></path>
<path fill="#1abcfe" style="fill: var(--color8, #1abcfe)" d="M23.998 16c0 2.944-2.688 5.333-5.999 5.333s-5.999-2.389-5.999-5.333 2.688-5.333 5.999-5.333c3.312 0 5.999 2.389 5.999 5.333z"></path>
</symbol>
<symbol id="icon-git" viewBox="0 0 32 32">
<path d="M15.952 0c-4.231 0.001-8.288 1.728-11.279 4.803s-4.672 7.245-4.673 11.593c0 7.24 4.6 13.377 10.862 15.591 0.784 0.101 1.076-0.403 1.076-0.806v-2.816c-4.402 1.007-5.38-2.212-5.38-2.212-0.686-1.912-1.762-2.416-1.762-2.416-1.468-1.005 0.096-1.005 0.096-1.005 1.566 0.101 2.448 1.71 2.448 1.71 1.468 2.514 3.718 1.809 4.6 1.408 0.096-1.106 0.586-1.809 0.978-2.212-3.524-0.403-7.242-1.811-7.242-8.149 0-1.809 0.586-3.219 1.664-4.426-0.1-0.302-0.686-2.010 0.196-4.224 0 0 1.37-0.403 4.402 1.71 1.272-0.403 2.644-0.504 4.014-0.504s2.74 0.201 4.012 0.504c3.034-2.111 4.404-1.71 4.404-1.71 0.88 2.214 0.292 3.922 0.194 4.325 1.078 1.207 1.672 2.788 1.664 4.426 0 6.338-3.72 7.645-7.24 8.048 0.586 0.502 1.076 1.507 1.076 3.016v4.527c0 0.403 0.292 0.905 1.076 0.806 3.172-1.1 5.927-3.198 7.876-5.995s2.994-6.154 2.986-9.595c-0.098-9.053-7.24-16.396-16.048-16.396z"></path>
</symbol>
<symbol id="icon-html" viewBox="0 0 32 32">
<path fill="#e44f26" style="fill: var(--color9, #e44f26)" d="M5.902 27.201l-2.247-25.201h24.69l-2.25 25.197-10.11 2.803-10.083-2.799z"></path>
<path fill="#f1662a" style="fill: var(--color10, #f1662a)" d="M16 27.858l8.17-2.265 1.922-21.532h-10.092v23.797z"></path>
<path fill="#ebebeb" style="fill: var(--color2, #ebebeb)" d="M16 13.407h-4.090l-0.282-3.165h4.372v-3.091h-7.75l0.074 0.83 0.759 8.517h6.917v-3.091zM16 21.434l-0.014 0.004-3.442-0.929-0.22-2.465h-3.103l0.433 4.852 6.332 1.758 0.014-0.004v-3.216z"></path>
<path fill="#fff" style="fill: var(--color3, #fff)" d="M15.989 13.407v3.091h3.806l-0.358 4.009-3.448 0.93v3.216l6.337-1.757 0.046-0.522 0.726-8.137 0.076-0.83h-7.185zM15.989 7.151v3.091h7.466l0.062-0.694 0.141-1.567 0.074-0.83h-7.743z"></path>
</symbol>
<symbol id="icon-js" viewBox="0 0 32 32">
<path fill="#f7df1e" style="fill: var(--color11, #f7df1e)" d="M0 0h32v32h-32v-32z"></path>
<path fill="#000" style="fill: var(--color12, #000)" d="M8.414 26.742l2.449-1.482c0.473 0.838 0.902 1.546 1.933 1.546 0.988 0 1.611-0.387 1.611-1.89v-10.225h3.007v10.267c0 3.115-1.826 4.532-4.49 4.532-2.406 0-3.802-1.246-4.511-2.75zM19.048 26.419l2.448-1.418c0.645 1.053 1.482 1.826 2.964 1.826 1.246 0 2.041-0.623 2.041-1.482 0-1.031-0.816-1.396-2.191-1.998l-0.752-0.322c-2.17-0.923-3.609-2.083-3.609-4.532 0-2.255 1.718-3.974 4.404-3.974 1.912 0 3.286 0.666 4.274 2.406l-2.342 1.504c-0.516-0.924-1.074-1.289-1.933-1.289-0.881 0-1.439 0.558-1.439 1.289 0 0.902 0.559 1.267 1.847 1.826l0.752 0.322c2.556 1.096 3.995 2.212 3.995 4.726 0 2.707-2.126 4.189-4.983 4.189-2.792 0-4.597-1.332-5.477-3.072z"></path>
</symbol>
<symbol id="icon-vscode" viewBox="0 0 32 32">
<path fill="#0065a9" style="fill: var(--color13, #0065a9)" d="M30.868 3.39l-6.594-3.192c-0.372-0.18-0.791-0.24-1.199-0.17s-0.783 0.265-1.075 0.559l-21.584 19.782c-0.137 0.126-0.247 0.279-0.322 0.449s-0.114 0.355-0.113 0.542 0.039 0.371 0.114 0.542c0.075 0.171 0.185 0.324 0.322 0.449l1.763 1.611c0.23 0.21 0.527 0.333 0.838 0.347s0.617-0.082 0.865-0.271l25.993-19.821c0.872-0.665 2.124-0.040 2.124 1.060v-0.077c0-0.378-0.106-0.749-0.307-1.070s-0.486-0.577-0.826-0.742z"></path>
<path fill="#007acc" style="fill: var(--color14, #007acc)" d="M30.868 28.61l-6.594 3.191c-0.372 0.18-0.791 0.24-1.199 0.17s-0.783-0.265-1.076-0.559l-21.584-19.782c-0.137-0.126-0.247-0.279-0.322-0.45s-0.114-0.355-0.113-0.542c0-0.187 0.039-0.371 0.114-0.542s0.185-0.324 0.322-0.449l1.763-1.611c0.23-0.211 0.527-0.333 0.838-0.347s0.617 0.082 0.865 0.271l25.993 19.821c0.872 0.665 2.124 0.040 2.124-1.060v0.077c0 0.378-0.106 0.749-0.307 1.070s-0.486 0.578-0.826 0.742z"></path>
<path fill="#1f9cf0" style="fill: var(--color15, #1f9cf0)" d="M24.275 31.802c-0.372 0.18-0.791 0.239-1.199 0.17s-0.783-0.265-1.076-0.559c0.738 0.742 2 0.216 2-0.833v-29.16c0-1.049-1.262-1.575-2-0.833 0.292-0.294 0.668-0.489 1.076-0.559s0.826-0.010 1.199 0.17l6.592 3.187c0.339 0.164 0.626 0.421 0.826 0.742s0.307 0.691 0.307 1.070v21.607c0 0.379-0.106 0.75-0.307 1.070s-0.487 0.578-0.826 0.742l-6.592 3.186z"></path>
<path fill="#000" style="fill: var(--color12, #000)" opacity="0.25" d="M22.673 31.863c-0.257-0.101-0.491-0.254-0.686-0.451l-12.612-11.566-5.494 4.192c-0.248 0.189-0.554 0.285-0.865 0.271s-0.607-0.137-0.837-0.347l-1.762-1.611c-0.137-0.126-0.247-0.278-0.322-0.449s-0.114-0.355-0.114-0.542 0.038-0.371 0.113-0.542c0.075-0.171 0.184-0.324 0.322-0.45l4.764-4.369-4.764-4.369c-0.137-0.126-0.247-0.279-0.321-0.45s-0.113-0.355-0.113-0.542c0-0.187 0.039-0.371 0.114-0.542s0.185-0.324 0.322-0.449l1.762-1.611c0.23-0.21 0.526-0.333 0.837-0.347s0.617 0.082 0.865 0.271l5.494 4.192 12.612-11.566c0.292-0.294 0.668-0.489 1.075-0.559s0.826-0.010 1.198 0.17l6.588 3.186c0.339 0.164 0.626 0.421 0.826 0.742s0.307 0.691 0.307 1.070v21.607c0 0.379-0.106 0.749-0.307 1.070s-0.487 0.578-0.826 0.742l-6.588 3.187c-0.246 0.119-0.514 0.186-0.787 0.197s-0.545-0.036-0.8-0.135zM23.986 8.698l-9.57 7.302 9.57 7.302v-14.604z"></path>
</symbol>
</defs>
</svg>
